<mxfile host="app.diagrams.net" agent="Mozilla/5.0 (Windows NT 10.0; Win64; x64) AppleWebKit/537.36 (KHTML, like Gecko) Chrome/134.0.0.0 Safari/537.36" version="24.8.6">
  <diagram id="C5RBs43oDa-KdzZeNtuy" name="Page-1">
    <mxGraphModel dx="1014" dy="658" grid="1" gridSize="10" guides="1" tooltips="1" connect="1" arrows="1" fold="1" page="1" pageScale="1" pageWidth="827" pageHeight="1169" math="0" shadow="0">
      <root>
        <mxCell id="WIyWlLk6GJQsqaUBKTNV-0" />
        <mxCell id="WIyWlLk6GJQsqaUBKTNV-1" parent="WIyWlLk6GJQsqaUBKTNV-0" />
        <mxCell id="vsehoCLmP1WpVE4WDJXf-18" value="Geraet" style="swimlane;fontStyle=1;align=center;verticalAlign=top;childLayout=stackLayout;horizontal=1;startSize=26.357142857142858;horizontalStack=0;resizeParent=1;resizeParentMax=0;resizeLast=0;collapsible=0;marginBottom=0;" vertex="1" parent="WIyWlLk6GJQsqaUBKTNV-1">
          <mxGeometry x="641" y="350" width="198" height="190.35714285714286" as="geometry" />
        </mxCell>
        <mxCell id="vsehoCLmP1WpVE4WDJXf-19" value="-marke: str" style="text;strokeColor=none;fillColor=none;align=left;verticalAlign=top;spacingLeft=4;spacingRight=4;overflow=hidden;rotatable=0;points=[[0,0.5],[1,0.5]];portConstraint=eastwest;" vertex="1" parent="vsehoCLmP1WpVE4WDJXf-18">
          <mxGeometry y="26.357142857142858" width="198" height="26" as="geometry" />
        </mxCell>
        <mxCell id="vsehoCLmP1WpVE4WDJXf-20" value="-modell: str" style="text;strokeColor=none;fillColor=none;align=left;verticalAlign=top;spacingLeft=4;spacingRight=4;overflow=hidden;rotatable=0;points=[[0,0.5],[1,0.5]];portConstraint=eastwest;" vertex="1" parent="vsehoCLmP1WpVE4WDJXf-18">
          <mxGeometry y="52.35714285714286" width="198" height="26" as="geometry" />
        </mxCell>
        <mxCell id="vsehoCLmP1WpVE4WDJXf-21" value="-preis: float" style="text;strokeColor=none;fillColor=none;align=left;verticalAlign=top;spacingLeft=4;spacingRight=4;overflow=hidden;rotatable=0;points=[[0,0.5],[1,0.5]];portConstraint=eastwest;" vertex="1" parent="vsehoCLmP1WpVE4WDJXf-18">
          <mxGeometry y="78.35714285714286" width="198" height="26" as="geometry" />
        </mxCell>
        <mxCell id="vsehoCLmP1WpVE4WDJXf-22" value="-akku: int" style="text;strokeColor=none;fillColor=none;align=left;verticalAlign=top;spacingLeft=4;spacingRight=4;overflow=hidden;rotatable=0;points=[[0,0.5],[1,0.5]];portConstraint=eastwest;" vertex="1" parent="vsehoCLmP1WpVE4WDJXf-18">
          <mxGeometry y="104.35714285714286" width="198" height="26" as="geometry" />
        </mxCell>
        <mxCell id="vsehoCLmP1WpVE4WDJXf-23" style="line;strokeWidth=1;fillColor=none;align=left;verticalAlign=middle;spacingTop=-1;spacingLeft=3;spacingRight=3;rotatable=0;labelPosition=right;points=[];portConstraint=eastwest;strokeColor=inherit;" vertex="1" parent="vsehoCLmP1WpVE4WDJXf-18">
          <mxGeometry y="130.35714285714286" width="198" height="8" as="geometry" />
        </mxCell>
        <mxCell id="vsehoCLmP1WpVE4WDJXf-24" value="+info() : : str" style="text;strokeColor=none;fillColor=none;align=left;verticalAlign=top;spacingLeft=4;spacingRight=4;overflow=hidden;rotatable=0;points=[[0,0.5],[1,0.5]];portConstraint=eastwest;" vertex="1" parent="vsehoCLmP1WpVE4WDJXf-18">
          <mxGeometry y="138.35714285714286" width="198" height="26" as="geometry" />
        </mxCell>
        <mxCell id="vsehoCLmP1WpVE4WDJXf-25" value="+laden(menge: int) : : str" style="text;strokeColor=none;fillColor=none;align=left;verticalAlign=top;spacingLeft=4;spacingRight=4;overflow=hidden;rotatable=0;points=[[0,0.5],[1,0.5]];portConstraint=eastwest;" vertex="1" parent="vsehoCLmP1WpVE4WDJXf-18">
          <mxGeometry y="164.35714285714286" width="198" height="26" as="geometry" />
        </mxCell>
        <mxCell id="vsehoCLmP1WpVE4WDJXf-26" value="Smartphone" style="swimlane;fontStyle=1;align=center;verticalAlign=top;childLayout=stackLayout;horizontal=1;startSize=29.25;horizontalStack=0;resizeParent=1;resizeParentMax=0;resizeLast=0;collapsible=0;marginBottom=0;" vertex="1" parent="WIyWlLk6GJQsqaUBKTNV-1">
          <mxGeometry x="377" y="604" width="176" height="124.25" as="geometry" />
        </mxCell>
        <mxCell id="vsehoCLmP1WpVE4WDJXf-27" value="-kamera_mpx: int" style="text;strokeColor=none;fillColor=none;align=left;verticalAlign=top;spacingLeft=4;spacingRight=4;overflow=hidden;rotatable=0;points=[[0,0.5],[1,0.5]];portConstraint=eastwest;" vertex="1" parent="vsehoCLmP1WpVE4WDJXf-26">
          <mxGeometry y="29.25" width="176" height="29" as="geometry" />
        </mxCell>
        <mxCell id="vsehoCLmP1WpVE4WDJXf-28" style="line;strokeWidth=1;fillColor=none;align=left;verticalAlign=middle;spacingTop=-1;spacingLeft=3;spacingRight=3;rotatable=0;labelPosition=right;points=[];portConstraint=eastwest;strokeColor=inherit;" vertex="1" parent="vsehoCLmP1WpVE4WDJXf-26">
          <mxGeometry y="58.25" width="176" height="8" as="geometry" />
        </mxCell>
        <mxCell id="vsehoCLmP1WpVE4WDJXf-29" value="+info() : : str" style="text;strokeColor=none;fillColor=none;align=left;verticalAlign=top;spacingLeft=4;spacingRight=4;overflow=hidden;rotatable=0;points=[[0,0.5],[1,0.5]];portConstraint=eastwest;" vertex="1" parent="vsehoCLmP1WpVE4WDJXf-26">
          <mxGeometry y="66.25" width="176" height="29" as="geometry" />
        </mxCell>
        <mxCell id="vsehoCLmP1WpVE4WDJXf-30" value="+fotografieren() : : str" style="text;strokeColor=none;fillColor=none;align=left;verticalAlign=top;spacingLeft=4;spacingRight=4;overflow=hidden;rotatable=0;points=[[0,0.5],[1,0.5]];portConstraint=eastwest;" vertex="1" parent="vsehoCLmP1WpVE4WDJXf-26">
          <mxGeometry y="95.25" width="176" height="29" as="geometry" />
        </mxCell>
        <mxCell id="vsehoCLmP1WpVE4WDJXf-31" value="Laptop" style="swimlane;fontStyle=1;align=center;verticalAlign=top;childLayout=stackLayout;horizontal=1;startSize=27.9;horizontalStack=0;resizeParent=1;resizeParentMax=0;resizeLast=0;collapsible=0;marginBottom=0;" vertex="1" parent="WIyWlLk6GJQsqaUBKTNV-1">
          <mxGeometry x="602" y="593" width="276" height="147.9" as="geometry" />
        </mxCell>
        <mxCell id="vsehoCLmP1WpVE4WDJXf-32" value="-ram: int" style="text;strokeColor=none;fillColor=none;align=left;verticalAlign=top;spacingLeft=4;spacingRight=4;overflow=hidden;rotatable=0;points=[[0,0.5],[1,0.5]];portConstraint=eastwest;" vertex="1" parent="vsehoCLmP1WpVE4WDJXf-31">
          <mxGeometry y="27.9" width="276" height="28" as="geometry" />
        </mxCell>
        <mxCell id="vsehoCLmP1WpVE4WDJXf-33" value="-prozessor: str" style="text;strokeColor=none;fillColor=none;align=left;verticalAlign=top;spacingLeft=4;spacingRight=4;overflow=hidden;rotatable=0;points=[[0,0.5],[1,0.5]];portConstraint=eastwest;" vertex="1" parent="vsehoCLmP1WpVE4WDJXf-31">
          <mxGeometry y="55.9" width="276" height="28" as="geometry" />
        </mxCell>
        <mxCell id="vsehoCLmP1WpVE4WDJXf-34" style="line;strokeWidth=1;fillColor=none;align=left;verticalAlign=middle;spacingTop=-1;spacingLeft=3;spacingRight=3;rotatable=0;labelPosition=right;points=[];portConstraint=eastwest;strokeColor=inherit;" vertex="1" parent="vsehoCLmP1WpVE4WDJXf-31">
          <mxGeometry y="83.9" width="276" height="8" as="geometry" />
        </mxCell>
        <mxCell id="vsehoCLmP1WpVE4WDJXf-35" value="+info() : : str" style="text;strokeColor=none;fillColor=none;align=left;verticalAlign=top;spacingLeft=4;spacingRight=4;overflow=hidden;rotatable=0;points=[[0,0.5],[1,0.5]];portConstraint=eastwest;" vertex="1" parent="vsehoCLmP1WpVE4WDJXf-31">
          <mxGeometry y="91.9" width="276" height="28" as="geometry" />
        </mxCell>
        <mxCell id="vsehoCLmP1WpVE4WDJXf-36" value="+programmieren(sprache: str) : : str" style="text;strokeColor=none;fillColor=none;align=left;verticalAlign=top;spacingLeft=4;spacingRight=4;overflow=hidden;rotatable=0;points=[[0,0.5],[1,0.5]];portConstraint=eastwest;" vertex="1" parent="vsehoCLmP1WpVE4WDJXf-31">
          <mxGeometry y="119.9" width="276" height="28" as="geometry" />
        </mxCell>
        <mxCell id="vsehoCLmP1WpVE4WDJXf-37" value="Tablet" style="swimlane;fontStyle=1;align=center;verticalAlign=top;childLayout=stackLayout;horizontal=1;startSize=29.25;horizontalStack=0;resizeParent=1;resizeParentMax=0;resizeLast=0;collapsible=0;marginBottom=0;" vertex="1" parent="WIyWlLk6GJQsqaUBKTNV-1">
          <mxGeometry x="928" y="604" width="177" height="124.25" as="geometry" />
        </mxCell>
        <mxCell id="vsehoCLmP1WpVE4WDJXf-38" value="-display_groesse: float" style="text;strokeColor=none;fillColor=none;align=left;verticalAlign=top;spacingLeft=4;spacingRight=4;overflow=hidden;rotatable=0;points=[[0,0.5],[1,0.5]];portConstraint=eastwest;" vertex="1" parent="vsehoCLmP1WpVE4WDJXf-37">
          <mxGeometry y="29.25" width="177" height="29" as="geometry" />
        </mxCell>
        <mxCell id="vsehoCLmP1WpVE4WDJXf-39" style="line;strokeWidth=1;fillColor=none;align=left;verticalAlign=middle;spacingTop=-1;spacingLeft=3;spacingRight=3;rotatable=0;labelPosition=right;points=[];portConstraint=eastwest;strokeColor=inherit;" vertex="1" parent="vsehoCLmP1WpVE4WDJXf-37">
          <mxGeometry y="58.25" width="177" height="8" as="geometry" />
        </mxCell>
        <mxCell id="vsehoCLmP1WpVE4WDJXf-40" value="+info() : : str" style="text;strokeColor=none;fillColor=none;align=left;verticalAlign=top;spacingLeft=4;spacingRight=4;overflow=hidden;rotatable=0;points=[[0,0.5],[1,0.5]];portConstraint=eastwest;" vertex="1" parent="vsehoCLmP1WpVE4WDJXf-37">
          <mxGeometry y="66.25" width="177" height="29" as="geometry" />
        </mxCell>
        <mxCell id="vsehoCLmP1WpVE4WDJXf-41" value="+zeichnen() : : str" style="text;strokeColor=none;fillColor=none;align=left;verticalAlign=top;spacingLeft=4;spacingRight=4;overflow=hidden;rotatable=0;points=[[0,0.5],[1,0.5]];portConstraint=eastwest;" vertex="1" parent="vsehoCLmP1WpVE4WDJXf-37">
          <mxGeometry y="95.25" width="177" height="29" as="geometry" />
        </mxCell>
        <mxCell id="vsehoCLmP1WpVE4WDJXf-42" value="Smartwatch" style="swimlane;fontStyle=1;align=center;verticalAlign=top;childLayout=stackLayout;horizontal=1;startSize=29.25;horizontalStack=0;resizeParent=1;resizeParentMax=0;resizeLast=0;collapsible=0;marginBottom=0;" vertex="1" parent="WIyWlLk6GJQsqaUBKTNV-1">
          <mxGeometry x="370" y="790" width="189" height="124.25" as="geometry" />
        </mxCell>
        <mxCell id="vsehoCLmP1WpVE4WDJXf-43" value="-wasserfest: bool" style="text;strokeColor=none;fillColor=none;align=left;verticalAlign=top;spacingLeft=4;spacingRight=4;overflow=hidden;rotatable=0;points=[[0,0.5],[1,0.5]];portConstraint=eastwest;" vertex="1" parent="vsehoCLmP1WpVE4WDJXf-42">
          <mxGeometry y="29.25" width="189" height="29" as="geometry" />
        </mxCell>
        <mxCell id="vsehoCLmP1WpVE4WDJXf-44" style="line;strokeWidth=1;fillColor=none;align=left;verticalAlign=middle;spacingTop=-1;spacingLeft=3;spacingRight=3;rotatable=0;labelPosition=right;points=[];portConstraint=eastwest;strokeColor=inherit;" vertex="1" parent="vsehoCLmP1WpVE4WDJXf-42">
          <mxGeometry y="58.25" width="189" height="8" as="geometry" />
        </mxCell>
        <mxCell id="vsehoCLmP1WpVE4WDJXf-45" value="+info() : : str" style="text;strokeColor=none;fillColor=none;align=left;verticalAlign=top;spacingLeft=4;spacingRight=4;overflow=hidden;rotatable=0;points=[[0,0.5],[1,0.5]];portConstraint=eastwest;" vertex="1" parent="vsehoCLmP1WpVE4WDJXf-42">
          <mxGeometry y="66.25" width="189" height="29" as="geometry" />
        </mxCell>
        <mxCell id="vsehoCLmP1WpVE4WDJXf-46" value="+trainingsmodus() : : str" style="text;strokeColor=none;fillColor=none;align=left;verticalAlign=top;spacingLeft=4;spacingRight=4;overflow=hidden;rotatable=0;points=[[0,0.5],[1,0.5]];portConstraint=eastwest;" vertex="1" parent="vsehoCLmP1WpVE4WDJXf-42">
          <mxGeometry y="95.25" width="189" height="29" as="geometry" />
        </mxCell>
        <mxCell id="vsehoCLmP1WpVE4WDJXf-47" value="" style="curved=1;startArrow=block;startSize=16;startFill=0;endArrow=none;exitX=0;exitY=0.72;entryX=0.5;entryY=0;rounded=0;" edge="1" parent="WIyWlLk6GJQsqaUBKTNV-1" source="vsehoCLmP1WpVE4WDJXf-18" target="vsehoCLmP1WpVE4WDJXf-26">
          <mxGeometry relative="1" as="geometry">
            <Array as="points">
              <mxPoint x="464" y="568" />
            </Array>
          </mxGeometry>
        </mxCell>
        <mxCell id="vsehoCLmP1WpVE4WDJXf-48" value="" style="curved=1;startArrow=block;startSize=16;startFill=0;endArrow=none;exitX=0.5;exitY=1;entryX=0.5;entryY=0;rounded=0;" edge="1" parent="WIyWlLk6GJQsqaUBKTNV-1" source="vsehoCLmP1WpVE4WDJXf-18" target="vsehoCLmP1WpVE4WDJXf-31">
          <mxGeometry relative="1" as="geometry">
            <Array as="points" />
          </mxGeometry>
        </mxCell>
        <mxCell id="vsehoCLmP1WpVE4WDJXf-49" value="" style="curved=1;startArrow=block;startSize=16;startFill=0;endArrow=none;exitX=1;exitY=0.72;entryX=0.5;entryY=0;rounded=0;" edge="1" parent="WIyWlLk6GJQsqaUBKTNV-1" source="vsehoCLmP1WpVE4WDJXf-18" target="vsehoCLmP1WpVE4WDJXf-37">
          <mxGeometry relative="1" as="geometry">
            <Array as="points">
              <mxPoint x="1017" y="568" />
            </Array>
          </mxGeometry>
        </mxCell>
        <mxCell id="vsehoCLmP1WpVE4WDJXf-50" value="" style="curved=1;startArrow=block;startSize=16;startFill=0;endArrow=none;exitX=0.5;exitY=1;entryX=0.5;entryY=0;rounded=0;" edge="1" parent="WIyWlLk6GJQsqaUBKTNV-1" source="vsehoCLmP1WpVE4WDJXf-26" target="vsehoCLmP1WpVE4WDJXf-42">
          <mxGeometry relative="1" as="geometry">
            <Array as="points" />
          </mxGeometry>
        </mxCell>
      </root>
    </mxGraphModel>
  </diagram>
</mxfile>
